<?xml version="1.0" encoding="UTF-8"?>
<svg id="a" data-name="Layer 1" xmlns="http://www.w3.org/2000/svg" width="248.45" height="189.02" viewBox="0 0 248.45 189.02">
  <defs>
    <style>
      .b {
        fill: #000;
      }

      .b, .c {
        stroke-width: 0px;
      }

      .c {
        fill: #02aeee;
      }
    </style>
  </defs>
  <path class="c" d="M212.51.06c-17.7,31.8-35.13,63.13-52.69,94.7,6.45,11.55,12.89,23.09,19.33,34.63-.23.3-.47.6-.7.9-14.67-10.05-29.34-20.1-44.76-30.65v41.41c-.37.12-.75.25-1.12.37-2.74-5.26-5.49-10.51-8.59-16.47-2.87,5.62-5.42,10.6-7.97,15.59-.31-.06-.61-.13-.92-.19v-40.91c-15.6,10.68-30.27,20.72-44.93,30.76-.25-.19-.51-.38-.76-.57,6.48-11.58,12.96-23.16,19.52-34.88-10.91-19.5-20.5-42.18-33.78-60.12C43.77,19.3,21.2,9.99,5.27,0h86.51c10.53,21.08,21.13,42.32,32.19,64.46,7.41-14.48,14.38-28.12,21.55-42.12C133.84,15,122.41,7.81,110.08.06h102.43Z"/>
  <path class="b" d="M55.85,143.08c18.78-12.91,37.14-25.52,56.12-38.57v82.97h-23.28v-39.75c-11.87,7.28-21.58,16.15-32.88,23.62-10.57-7.73-21.14-15.46-32.18-23.54v39.7H0v-82.79c18.85,12.95,37.31,25.63,55.85,38.35Z"/>
  <path class="b" d="M160.24,147.42v40.11h-23.76v-83.05c18.98,13.04,37.44,25.72,56.17,38.59,18.36-12.61,36.82-25.29,55.8-38.33v82.73h-23.59v-39.69c-11.06,8.11-21.51,15.77-32.35,23.72-10.6-7.91-21.02-15.68-32.28-24.07Z"/>
  <path class="c" d="M163.2,152.81c10.16,7.47,19.62,14.43,29.32,21.56,2.77-1.89,5.45-3.72,8.54-5.84,3.76,6.71,7.36,13.14,11.33,20.21h-49.19v-35.93Z"/>
  <path class="c" d="M85.29,189.02h-49.36c3.98-7.08,7.63-13.59,11.48-20.44,3.02,2.05,5.7,3.87,8.53,5.8,9.7-7.13,19.25-14.15,29.35-21.57v36.21Z"/>
</svg>